<?xml version="1.0" encoding="UTF-8"?>
<svg id="_레이어_1" data-name="레이어 1" xmlns="http://www.w3.org/2000/svg" width="227.64mm" height="104.29mm" viewBox="0 0 645.29 295.64">
  <defs>
    <style>
      .cls-1 {
        fill: #ff3c4b;
        stroke-width: 0px;
      }
    </style>
  </defs>
  <g>
    <rect class="cls-1" x="360" y="19.39" width="9.39" height="73.18"/>
    <rect class="cls-1" x="255.61" width="93.48" height="93.48"/>
    <rect class="cls-1" x="296.2" y="124.93" width="73.18" height="9.39"/>
    <rect class="cls-1" x="380.29" y="40.83" width="9.39" height="93.48"/>
    <rect class="cls-1" x="275.9" y="104.39" width="93.48" height="9.39"/>
  </g>
  <g>
    <path class="cls-1" d="m.95,253.02v-13.49h47.47c4.84,0,7.61-2.51,7.61-6.48,0-4.24-2.77-6.66-7.61-6.66h-28.45c-12.36,0-19.97-7.44-19.97-18.07s7.09-18.16,20.15-18.16h45.48v13.49H20.15c-3.8,0-6.14,2.16-6.14,6.05s2.42,6.05,6.14,6.05h28.27c13.23,0,20.32,5.88,20.32,18.42,0,10.81-6.66,18.85-20.32,18.85H.95Z"/>
    <path class="cls-1" d="m89.83,211.18v41.85h-12.8v-55.68c0-4.93,2.59-7.95,6.74-7.95,1.99,0,3.54.69,5.45,2.51l41.15,39.51v-41.85h12.88v56.28c0,5.01-2.77,8.04-6.74,8.04-2.07,0-3.72-.78-5.53-2.59l-41.15-40.12Z"/>
    <path class="cls-1" d="m217,253.02l-8.82-14.87h-26.54l6.14-10.46h14.18l-11.5-19.37-26.37,44.7h-15.3l35.71-59.4c1.56-2.59,3.54-4.32,6.48-4.32s4.93,1.73,6.48,4.32l35.71,59.4h-16.17Z"/>
    <path class="cls-1" d="m260.31,236.08v-13.06h23.43c6.57,0,10.46-3.89,10.46-9.68s-3.89-9.68-10.46-9.68h-31.3v49.37h-13.4v-62.86h44.7c14.87,0,23.6,8.82,23.6,22.74s-8.73,23.17-23.6,23.17h-23.43Z"/>
    <path class="cls-1" d="m310.02,190.17h16.43l26.28,44.87,26.2-44.87h15.48l-35.71,59.4c-1.64,2.68-3.63,4.32-6.48,4.32s-4.93-1.64-6.48-4.32l-35.71-59.4Z"/>
    <path class="cls-1" d="m444.37,253.02l-8.82-14.87h-26.54l6.14-10.46h14.18l-11.5-19.37-26.37,44.7h-15.3l35.71-59.4c1.56-2.59,3.54-4.32,6.48-4.32s4.93,1.73,6.48,4.32l35.71,59.4h-16.17Z"/>
    <path class="cls-1" d="m515.87,190.17h13.14v35.1c0,19.45-9.77,28.62-34.5,28.62s-34.5-9.16-34.5-28.62v-35.1h13.92v35.1c0,11.15,4.84,15.39,21.01,15.39s20.92-4.24,20.92-15.39v-35.1Z"/>
    <path class="cls-1" d="m538.08,253.02v-62.86h13.49v49.37h40.64v13.49h-54.12Z"/>
    <path class="cls-1" d="m608.71,253.02v-49.37h-23.08v-13.49h59.66v13.49h-23.09v49.37h-13.49Z"/>
  </g>
  <g>
    <path class="cls-1" d="m209.28,275.33l-5.59,20.05h-4.74s-3.77-14.27-3.77-14.27l-3.93,14.28-4.71.03-5.41-20.08h4.31s3.54,15.56,3.54,15.56l4.07-15.57h4.48s3.86,15.48,3.86,15.48l3.55-15.48h4.34Z"/>
    <path class="cls-1" d="m227.73,288.62h-11.63c.1,1.16.5,2.06,1.21,2.71.71.65,1.58.98,2.62.97,1.49,0,2.56-.64,3.19-1.93h4.34c-.46,1.53-1.34,2.79-2.64,3.78s-2.9,1.48-4.8,1.48c-1.53,0-2.91-.34-4.12-1.02s-2.17-1.64-2.84-2.89c-.68-1.24-1.02-2.68-1.02-4.31,0-1.65.33-3.09,1-4.34.67-1.25,1.61-2.2,2.81-2.88,1.2-.67,2.59-1.01,4.16-1.01,1.51,0,2.87.32,4.07.97,1.2.65,2.13,1.58,2.79,2.77.66,1.2.99,2.57.99,4.12,0,.58-.04,1.09-.12,1.55Zm-4.05-2.7c-.02-1.03-.39-1.86-1.12-2.48s-1.62-.93-2.67-.93c-1,0-1.83.3-2.51.91-.68.6-1.09,1.44-1.25,2.51h7.56Z"/>
    <path class="cls-1" d="m239.88,283.08c.67-1.23,1.6-2.19,2.78-2.87,1.19-.68,2.55-1.02,4.08-1.02,1.97,0,3.61.49,4.9,1.48s2.16,2.37,2.6,4.15h-4.34c-.23-.69-.62-1.23-1.16-1.62-.55-.39-1.22-.59-2.03-.59-1.15,0-2.06.42-2.73,1.25-.67.83-1,2.02-1,3.55,0,1.51.34,2.69,1.01,3.52.67.83,1.58,1.25,2.73,1.25,1.63,0,2.69-.73,3.19-2.19h4.34c-.44,1.72-1.31,3.09-2.61,4.11-1.3,1.02-2.93,1.52-4.88,1.52-1.53,0-2.89-.34-4.08-1.02s-2.12-1.64-2.79-2.87c-.67-1.24-1.01-2.67-1.01-4.32,0-1.65.33-3.09,1-4.32Z"/>
    <path class="cls-1" d="m258.28,283.06c.64-1.25,1.51-2.2,2.61-2.87,1.1-.67,2.33-1.01,3.69-1.01,1.19,0,2.23.24,3.12.72.89.48,1.61,1.08,2.14,1.81v-2.27s4.05,0,4.05,0v15.91s-4.04,0-4.04,0v-2.33c-.52.75-1.23,1.36-2.14,1.85-.91.49-1.96.73-3.14.73-1.34,0-2.56-.35-3.66-1.03-1.1-.69-1.97-1.66-2.62-2.91-.64-1.25-.96-2.7-.96-4.32,0-1.61.32-3.04.96-4.28Zm10.99,1.82c-.39-.7-.9-1.23-1.55-1.61-.65-.37-1.35-.56-2.1-.56-.75,0-1.44.18-2.07.55-.63.36-1.14.9-1.54,1.59-.39.7-.59,1.53-.59,2.49,0,.96.2,1.8.59,2.51s.91,1.27,1.55,1.65c.64.38,1.33.58,2.05.58s1.44-.19,2.1-.56c.65-.38,1.17-.91,1.55-1.61.38-.7.57-1.54.57-2.51,0-.98-.19-1.81-.58-2.51Z"/>
    <path class="cls-1" d="m292.38,280.98c1.17,1.2,1.75,2.87,1.76,5.01v9.34s-4.02,0-4.02,0v-8.79c0-1.26-.32-2.23-.95-2.91-.63-.68-1.49-1.02-2.59-1.02-1.11,0-1.99.34-2.63,1.02-.64.68-.96,1.65-.96,2.92v8.79s-4.02,0-4.02,0v-15.91s4.01,0,4.01,0v1.98c.54-.69,1.22-1.23,2.05-1.62.83-.39,1.75-.59,2.74-.59,1.9,0,3.43.6,4.6,1.79Z"/>
    <path class="cls-1" d="m321.25,286.72c.73.92,1.09,1.97,1.09,3.16,0,1.07-.26,2.02-.79,2.83-.53.81-1.29,1.45-2.28,1.91-1,.46-2.17.69-3.53.69h-8.65s-.01-20.04-.01-20.04h8.27c1.36,0,2.53.21,3.52.65s1.73,1.05,2.24,1.84c.51.79.76,1.68.76,2.67,0,1.17-.31,2.14-.93,2.93-.62.79-1.45,1.34-2.48,1.67,1.13.21,2.06.78,2.79,1.69Zm-10.14-3.18h3.68c.96,0,1.69-.22,2.21-.65.52-.43.77-1.05.77-1.85s-.26-1.43-.78-1.87c-.52-.44-1.26-.66-2.21-.66h-3.68s0,5.03,0,5.03Zm6.34,7.81c.55-.46.82-1.11.82-1.96,0-.86-.29-1.54-.86-2.02-.57-.49-1.35-.73-2.33-.73h-3.97s0,5.4,0,5.4h4.05c.98,0,1.74-.23,2.28-.69Z"/>
    <path class="cls-1" d="m341.39,288.55h-11.63c.1,1.16.5,2.06,1.21,2.71.71.65,1.58.98,2.62.97,1.49,0,2.56-.64,3.19-1.93h4.34c-.46,1.53-1.34,2.79-2.64,3.78s-2.9,1.48-4.8,1.48c-1.53,0-2.91-.34-4.12-1.02s-2.17-1.64-2.84-2.89c-.68-1.24-1.02-2.68-1.02-4.31,0-1.65.33-3.09,1-4.34.67-1.25,1.61-2.2,2.81-2.87,1.2-.67,2.59-1.01,4.16-1.01,1.51,0,2.87.33,4.07.97,1.2.65,2.13,1.58,2.79,2.77.66,1.2.99,2.57.99,4.12,0,.58-.04,1.09-.12,1.55Zm-4.05-2.7c-.02-1.03-.39-1.86-1.12-2.48-.73-.62-1.62-.93-2.67-.93-1,0-1.83.3-2.51.91-.68.6-1.09,1.44-1.25,2.51h7.56Z"/>
    <path class="cls-1" d="m356.72,294.78c-1.12-.48-2.01-1.17-2.66-2.07-.65-.9-.99-1.96-1.01-3.19h4.31c.06.82.35,1.47.88,1.95.53.48,1.25.72,2.17.72.94,0,1.68-.23,2.21-.68.53-.45.8-1.04.8-1.77,0-.59-.18-1.08-.55-1.46-.36-.38-.82-.68-1.36-.9-.55-.22-1.3-.46-2.26-.73-1.3-.38-2.36-.76-3.17-1.13s-1.51-.94-2.1-1.69c-.58-.76-.88-1.77-.88-3.03,0-1.19.3-2.22.89-3.1.59-.88,1.42-1.56,2.5-2.03,1.07-.47,2.3-.7,3.68-.71,2.07,0,3.75.5,5.04,1.5,1.29,1,2.01,2.41,2.14,4.21h-4.42c-.04-.69-.33-1.26-.88-1.71-.55-.45-1.27-.67-2.17-.67-.79,0-1.41.2-1.88.6-.47.4-.7.99-.7,1.75,0,.54.18.98.53,1.34.36.35.8.64,1.32.86.53.22,1.27.47,2.23.76,1.3.38,2.36.76,3.19,1.15.82.38,1.53.96,2.12,1.72.6.77.89,1.77.89,3.02,0,1.07-.28,2.07-.83,2.99-.56.92-1.37,1.65-2.44,2.2-1.07.55-2.35.82-3.82.82-1.4,0-2.66-.24-3.78-.72Z"/>
    <path class="cls-1" d="m396.69,280.92c1.2,1.2,1.8,2.87,1.8,5.01v9.34s-4.02,0-4.02,0v-8.79c0-1.24-.32-2.2-.96-2.86-.63-.66-1.49-.99-2.58-.99-1.09,0-1.96.33-2.6.99-.64.66-.96,1.61-.96,2.86v8.79s-4.02,0-4.02,0v-8.79c0-1.24-.32-2.2-.95-2.86-.63-.66-1.49-.99-2.59-.99-1.11,0-1.99.33-2.63.99-.64.66-.96,1.61-.96,2.86v8.79s-4.02,0-4.02,0v-15.91s4.01,0,4.01,0v1.92c.52-.67,1.18-1.2,2-1.58s1.71-.58,2.69-.58c1.24,0,2.35.26,3.33.79s1.73,1.28,2.27,2.25c.52-.92,1.27-1.66,2.26-2.21.98-.56,2.05-.83,3.2-.83,1.95,0,3.53.6,4.73,1.79Z"/>
    <path class="cls-1" d="m403.39,282.97c.64-1.24,1.51-2.2,2.61-2.87,1.1-.67,2.33-1.01,3.69-1.01,1.19,0,2.23.24,3.12.72.89.48,1.61,1.08,2.14,1.81v-2.27s4.05,0,4.05,0v15.91s-4.04,0-4.04,0v-2.33c-.52.75-1.23,1.37-2.14,1.85-.91.49-1.96.73-3.14.73-1.34,0-2.56-.34-3.66-1.03-1.1-.69-1.97-1.66-2.62-2.91-.64-1.25-.96-2.69-.96-4.32,0-1.61.32-3.04.96-4.28Zm10.99,1.82c-.39-.7-.9-1.23-1.55-1.61-.65-.37-1.35-.56-2.1-.56s-1.44.18-2.07.55-1.14.9-1.54,1.59c-.39.7-.59,1.53-.59,2.48,0,.96.2,1.8.59,2.51s.91,1.27,1.55,1.65c.64.38,1.33.57,2.05.57s1.44-.19,2.1-.56c.65-.37,1.17-.91,1.55-1.61.38-.7.57-1.54.57-2.51,0-.98-.19-1.81-.58-2.51Z"/>
    <path class="cls-1" d="m428.77,282.64v7.7c0,.54.13.92.39,1.16.26.24.69.36,1.31.36h1.87s0,3.39,0,3.39h-2.53c-3.39,0-5.08-1.64-5.09-4.94v-7.67s-1.9,0-1.9,0v-3.3s1.89,0,1.89,0v-3.93s4.05,0,4.05,0v3.93s3.56,0,3.56,0v3.3s-3.56,0-3.56,0Z"/>
    <path class="cls-1" d="m451.06,288.48h-11.63c.1,1.16.5,2.06,1.21,2.71.71.65,1.58.98,2.62.97,1.49,0,2.56-.64,3.19-1.93h4.34c-.46,1.53-1.34,2.79-2.64,3.78s-2.9,1.48-4.8,1.48c-1.53,0-2.91-.34-4.12-1.02s-2.17-1.64-2.84-2.89c-.68-1.24-1.02-2.68-1.02-4.31,0-1.65.33-3.09,1-4.34.67-1.25,1.61-2.2,2.81-2.87,1.2-.67,2.59-1.01,4.16-1.01,1.51,0,2.87.33,4.07.97,1.2.65,2.13,1.58,2.79,2.77.66,1.2.99,2.57.99,4.12,0,.58-.04,1.09-.12,1.55Zm-4.05-2.7c-.02-1.03-.39-1.86-1.12-2.48-.73-.62-1.62-.93-2.67-.93-1,0-1.83.3-2.51.91-.68.6-1.09,1.44-1.25,2.51h7.56Z"/>
    <path class="cls-1" d="m461.29,279.8c.83-.48,1.79-.72,2.86-.72v4.22s-1.06,0-1.06,0c-1.26,0-2.22.3-2.86.89-.64.59-.96,1.63-.96,3.1v7.93s-4.02,0-4.02,0v-15.91s4.01,0,4.01,0v2.47c.52-.84,1.19-1.5,2.03-1.98Z"/>
  </g>
</svg>